<mxfile host="app.diagrams.net" modified="2021-05-01T17:51:30.255Z" agent="5.0 (Windows NT 10.0; Win64; x64) AppleWebKit/537.36 (KHTML, like Gecko) Chrome/90.0.4430.93 Safari/537.36" etag="e_demgzxUsclyEcNlDmm" version="14.6.9" type="github">
  <diagram id="hFp8FtYvNPyADUs24Xmm" name="Page-1">
    <mxGraphModel dx="1038" dy="491" grid="1" gridSize="10" guides="1" tooltips="1" connect="1" arrows="1" fold="1" page="1" pageScale="1" pageWidth="827" pageHeight="1169" math="0" shadow="0">
      <root>
        <mxCell id="0" />
        <mxCell id="1" parent="0" />
        <mxCell id="b_CHY5Jx8EDemwCV-f49-3" value="" style="edgeStyle=orthogonalEdgeStyle;rounded=0;orthogonalLoop=1;jettySize=auto;html=1;" edge="1" parent="1" source="b_CHY5Jx8EDemwCV-f49-1" target="b_CHY5Jx8EDemwCV-f49-2">
          <mxGeometry relative="1" as="geometry" />
        </mxCell>
        <mxCell id="b_CHY5Jx8EDemwCV-f49-1" value="constructor&lt;br&gt;&lt;span style=&quot;color: rgb(111 , 66 , 193) ; font-size: 12px ; font-style: normal ; font-weight: 400 ; letter-spacing: normal ; text-indent: 0px ; text-transform: none ; word-spacing: 0px ; background-color: rgb(255 , 255 , 255) ; display: inline ; float: none&quot;&gt;MultipleBinaryFlag&lt;/span&gt;&lt;br&gt;" style="ellipse;whiteSpace=wrap;html=1;aspect=fixed;" vertex="1" parent="1">
          <mxGeometry x="359" width="80" height="80" as="geometry" />
        </mxCell>
        <mxCell id="b_CHY5Jx8EDemwCV-f49-5" value="else" style="edgeStyle=orthogonalEdgeStyle;rounded=0;orthogonalLoop=1;jettySize=auto;html=1;" edge="1" parent="1" source="b_CHY5Jx8EDemwCV-f49-2" target="b_CHY5Jx8EDemwCV-f49-4">
          <mxGeometry relative="1" as="geometry" />
        </mxCell>
        <mxCell id="b_CHY5Jx8EDemwCV-f49-9" value="True" style="edgeStyle=orthogonalEdgeStyle;rounded=0;orthogonalLoop=1;jettySize=auto;html=1;" edge="1" parent="1" source="b_CHY5Jx8EDemwCV-f49-2" target="b_CHY5Jx8EDemwCV-f49-8">
          <mxGeometry relative="1" as="geometry" />
        </mxCell>
        <mxCell id="b_CHY5Jx8EDemwCV-f49-2" value="&lt;span class=&quot;pl-k&quot; style=&quot;box-sizing: border-box ; font-family: , &amp;#34;consolas&amp;#34; , &amp;#34;liberation mono&amp;#34; , &amp;#34;menlo&amp;#34; , monospace ; background-color: rgb(255 , 255 , 255)&quot;&gt;if&lt;/span&gt;&lt;span style=&quot;color: rgb(36 , 41 , 46) ; font-family: , &amp;#34;consolas&amp;#34; , &amp;#34;liberation mono&amp;#34; , &amp;#34;menlo&amp;#34; , monospace ; background-color: rgb(255 , 255 , 255)&quot;&gt; (&lt;/span&gt;&lt;span class=&quot;pl-smi&quot; style=&quot;box-sizing: border-box ; color: rgb(36 , 41 , 46) ; font-family: , &amp;#34;consolas&amp;#34; , &amp;#34;liberation mono&amp;#34; , &amp;#34;menlo&amp;#34; , monospace ; background-color: rgb(255 , 255 , 255)&quot;&gt;length&lt;/span&gt;&lt;span style=&quot;color: rgb(36 , 41 , 46) ; font-family: , &amp;#34;consolas&amp;#34; , &amp;#34;liberation mono&amp;#34; , &amp;#34;menlo&amp;#34; , monospace ; background-color: rgb(255 , 255 , 255)&quot;&gt; &lt;/span&gt;&lt;span class=&quot;pl-k&quot; style=&quot;box-sizing: border-box ; font-family: , &amp;#34;consolas&amp;#34; , &amp;#34;liberation mono&amp;#34; , &amp;#34;menlo&amp;#34; , monospace ; background-color: rgb(255 , 255 , 255)&quot;&gt;&amp;lt;&lt;/span&gt;&lt;span style=&quot;color: rgb(36 , 41 , 46) ; font-family: , &amp;#34;consolas&amp;#34; , &amp;#34;liberation mono&amp;#34; , &amp;#34;menlo&amp;#34; , monospace ; background-color: rgb(255 , 255 , 255)&quot;&gt; &lt;/span&gt;&lt;span class=&quot;pl-c1&quot; style=&quot;box-sizing: border-box ; font-family: , &amp;#34;consolas&amp;#34; , &amp;#34;liberation mono&amp;#34; , &amp;#34;menlo&amp;#34; , monospace ; background-color: rgb(255 , 255 , 255)&quot;&gt;33&lt;/span&gt;&lt;span style=&quot;color: rgb(36 , 41 , 46) ; font-family: , &amp;#34;consolas&amp;#34; , &amp;#34;liberation mono&amp;#34; , &amp;#34;menlo&amp;#34; , monospace ; background-color: rgb(255 , 255 , 255)&quot;&gt;)&lt;/span&gt;" style="ellipse;whiteSpace=wrap;html=1;aspect=fixed;" vertex="1" parent="1">
          <mxGeometry x="359" y="100" width="80" height="80" as="geometry" />
        </mxCell>
        <mxCell id="b_CHY5Jx8EDemwCV-f49-15" value="True" style="edgeStyle=orthogonalEdgeStyle;rounded=0;orthogonalLoop=1;jettySize=auto;html=1;" edge="1" parent="1" source="b_CHY5Jx8EDemwCV-f49-4" target="b_CHY5Jx8EDemwCV-f49-14">
          <mxGeometry relative="1" as="geometry" />
        </mxCell>
        <mxCell id="b_CHY5Jx8EDemwCV-f49-4" value="&lt;span class=&quot;pl-k&quot; style=&quot;box-sizing: border-box ; font-family: , &amp;#34;consolas&amp;#34; , &amp;#34;liberation mono&amp;#34; , &amp;#34;menlo&amp;#34; , monospace ; background-color: rgb(255 , 255 , 255)&quot;&gt;if&lt;/span&gt;&lt;span style=&quot;color: rgb(36 , 41 , 46) ; font-family: , &amp;#34;consolas&amp;#34; , &amp;#34;liberation mono&amp;#34; , &amp;#34;menlo&amp;#34; , monospace ; background-color: rgb(255 , 255 , 255)&quot;&gt; (&lt;/span&gt;&lt;span class=&quot;pl-smi&quot; style=&quot;box-sizing: border-box ; color: rgb(36 , 41 , 46) ; font-family: , &amp;#34;consolas&amp;#34; , &amp;#34;liberation mono&amp;#34; , &amp;#34;menlo&amp;#34; , monospace ; background-color: rgb(255 , 255 , 255)&quot;&gt;length&lt;/span&gt;&lt;span style=&quot;color: rgb(36 , 41 , 46) ; font-family: , &amp;#34;consolas&amp;#34; , &amp;#34;liberation mono&amp;#34; , &amp;#34;menlo&amp;#34; , monospace ; background-color: rgb(255 , 255 , 255)&quot;&gt; &lt;/span&gt;&lt;span class=&quot;pl-k&quot; style=&quot;box-sizing: border-box ; font-family: , &amp;#34;consolas&amp;#34; , &amp;#34;liberation mono&amp;#34; , &amp;#34;menlo&amp;#34; , monospace ; background-color: rgb(255 , 255 , 255)&quot;&gt;&amp;lt;&lt;/span&gt;&lt;span style=&quot;color: rgb(36 , 41 , 46) ; font-family: , &amp;#34;consolas&amp;#34; , &amp;#34;liberation mono&amp;#34; , &amp;#34;menlo&amp;#34; , monospace ; background-color: rgb(255 , 255 , 255)&quot;&gt; &lt;/span&gt;&lt;span class=&quot;pl-c1&quot; style=&quot;box-sizing: border-box ; font-family: , &amp;#34;consolas&amp;#34; , &amp;#34;liberation mono&amp;#34; , &amp;#34;menlo&amp;#34; , monospace ; background-color: rgb(255 , 255 , 255)&quot;&gt;65&lt;/span&gt;&lt;span style=&quot;color: rgb(36 , 41 , 46) ; font-family: , &amp;#34;consolas&amp;#34; , &amp;#34;liberation mono&amp;#34; , &amp;#34;menlo&amp;#34; , monospace ; background-color: rgb(255 , 255 , 255)&quot;&gt;)&lt;/span&gt;" style="ellipse;whiteSpace=wrap;html=1;aspect=fixed;" vertex="1" parent="1">
          <mxGeometry x="359" y="200" width="80" height="80" as="geometry" />
        </mxCell>
        <mxCell id="b_CHY5Jx8EDemwCV-f49-21" value="" style="edgeStyle=orthogonalEdgeStyle;rounded=0;orthogonalLoop=1;jettySize=auto;html=1;exitX=0.5;exitY=1;exitDx=0;exitDy=0;" edge="1" parent="1" source="b_CHY5Jx8EDemwCV-f49-4" target="b_CHY5Jx8EDemwCV-f49-20">
          <mxGeometry relative="1" as="geometry">
            <mxPoint x="399" y="380" as="sourcePoint" />
          </mxGeometry>
        </mxCell>
        <mxCell id="b_CHY5Jx8EDemwCV-f49-11" value="True" style="edgeStyle=orthogonalEdgeStyle;rounded=0;orthogonalLoop=1;jettySize=auto;html=1;" edge="1" parent="1" source="b_CHY5Jx8EDemwCV-f49-8" target="b_CHY5Jx8EDemwCV-f49-10">
          <mxGeometry relative="1" as="geometry" />
        </mxCell>
        <mxCell id="b_CHY5Jx8EDemwCV-f49-13" value="" style="edgeStyle=orthogonalEdgeStyle;rounded=0;orthogonalLoop=1;jettySize=auto;html=1;" edge="1" parent="1" source="b_CHY5Jx8EDemwCV-f49-8" target="b_CHY5Jx8EDemwCV-f49-12">
          <mxGeometry relative="1" as="geometry" />
        </mxCell>
        <mxCell id="b_CHY5Jx8EDemwCV-f49-8" value="&lt;span style=&quot;color: rgb(36 , 41 , 46) ; font-family: , &amp;#34;consolas&amp;#34; , &amp;#34;liberation mono&amp;#34; , &amp;#34;menlo&amp;#34; , monospace ; background-color: rgb(255 , 255 , 255)&quot;&gt; &lt;/span&gt;&lt;span class=&quot;pl-k&quot; style=&quot;box-sizing: border-box ; font-family: , &amp;#34;consolas&amp;#34; , &amp;#34;liberation mono&amp;#34; , &amp;#34;menlo&amp;#34; , monospace ; background-color: rgb(255 , 255 , 255)&quot;&gt;if&lt;/span&gt;&lt;span style=&quot;color: rgb(36 , 41 , 46) ; font-family: , &amp;#34;consolas&amp;#34; , &amp;#34;liberation mono&amp;#34; , &amp;#34;menlo&amp;#34; , monospace ; background-color: rgb(255 , 255 , 255)&quot;&gt; (&lt;/span&gt;&lt;span class=&quot;pl-smi&quot; style=&quot;box-sizing: border-box ; color: rgb(36 , 41 , 46) ; font-family: , &amp;#34;consolas&amp;#34; , &amp;#34;liberation mono&amp;#34; , &amp;#34;menlo&amp;#34; , monospace ; background-color: rgb(255 , 255 , 255)&quot;&gt;_flag&lt;/span&gt;&lt;span style=&quot;color: rgb(36 , 41 , 46) ; font-family: , &amp;#34;consolas&amp;#34; , &amp;#34;liberation mono&amp;#34; , &amp;#34;menlo&amp;#34; , monospace ; background-color: rgb(255 , 255 , 255)&quot;&gt; &lt;/span&gt;&lt;span class=&quot;pl-k&quot; style=&quot;box-sizing: border-box ; font-family: , &amp;#34;consolas&amp;#34; , &amp;#34;liberation mono&amp;#34; , &amp;#34;menlo&amp;#34; , monospace ; background-color: rgb(255 , 255 , 255)&quot;&gt;==&lt;/span&gt;&lt;span style=&quot;color: rgb(36 , 41 , 46) ; font-family: , &amp;#34;consolas&amp;#34; , &amp;#34;liberation mono&amp;#34; , &amp;#34;menlo&amp;#34; , monospace ; background-color: rgb(255 , 255 , 255)&quot;&gt; &lt;/span&gt;&lt;span class=&quot;pl-c1&quot; style=&quot;box-sizing: border-box ; font-family: , &amp;#34;consolas&amp;#34; , &amp;#34;liberation mono&amp;#34; , &amp;#34;menlo&amp;#34; , monospace ; background-color: rgb(255 , 255 , 255)&quot;&gt;null&lt;/span&gt;&lt;span style=&quot;color: rgb(36 , 41 , 46) ; font-family: , &amp;#34;consolas&amp;#34; , &amp;#34;liberation mono&amp;#34; , &amp;#34;menlo&amp;#34; , monospace ; background-color: rgb(255 , 255 , 255)&quot;&gt;)&lt;/span&gt;" style="ellipse;whiteSpace=wrap;html=1;aspect=fixed;" vertex="1" parent="1">
          <mxGeometry x="240" y="100" width="80" height="80" as="geometry" />
        </mxCell>
        <mxCell id="b_CHY5Jx8EDemwCV-f49-10" value="&lt;span class=&quot;pl-k&quot; style=&quot;box-sizing: border-box ; font-family: , &amp;#34;consolas&amp;#34; , &amp;#34;liberation mono&amp;#34; , &amp;#34;menlo&amp;#34; , monospace ; background-color: rgb(255 , 255 , 255)&quot;&gt;return&lt;/span&gt;&lt;span style=&quot;color: rgb(36 , 41 , 46) ; font-family: , &amp;#34;consolas&amp;#34; , &amp;#34;liberation mono&amp;#34; , &amp;#34;menlo&amp;#34; , monospace ; background-color: rgb(255 , 255 , 255)&quot;&gt;;&lt;/span&gt;" style="ellipse;whiteSpace=wrap;html=1;aspect=fixed;" vertex="1" parent="1">
          <mxGeometry x="130" y="100" width="80" height="80" as="geometry" />
        </mxCell>
        <mxCell id="b_CHY5Jx8EDemwCV-f49-12" value="&lt;span class=&quot;pl-k&quot; style=&quot;box-sizing: border-box ; font-family: , &amp;#34;consolas&amp;#34; , &amp;#34;liberation mono&amp;#34; , &amp;#34;menlo&amp;#34; , monospace ; background-color: rgb(255 , 255 , 255)&quot;&gt;base&lt;/span&gt;&lt;span style=&quot;color: rgb(36 , 41 , 46) ; font-family: , &amp;#34;consolas&amp;#34; , &amp;#34;liberation mono&amp;#34; , &amp;#34;menlo&amp;#34; , monospace ; background-color: rgb(255 , 255 , 255)&quot;&gt;.&lt;/span&gt;&lt;span class=&quot;pl-en&quot; style=&quot;box-sizing: border-box ; font-family: , &amp;#34;consolas&amp;#34; , &amp;#34;liberation mono&amp;#34; , &amp;#34;menlo&amp;#34; , monospace ; background-color: rgb(255 , 255 , 255)&quot;&gt;&lt;span class=&quot;pl-token&quot; style=&quot;box-sizing: border-box&quot;&gt;SetFlag&lt;/span&gt;&lt;/span&gt;&lt;span style=&quot;color: rgb(36 , 41 , 46) ; font-family: , &amp;#34;consolas&amp;#34; , &amp;#34;liberation mono&amp;#34; , &amp;#34;menlo&amp;#34; , monospace ; background-color: rgb(255 , 255 , 255)&quot;&gt;(&lt;/span&gt;&lt;span class=&quot;pl-smi&quot; style=&quot;box-sizing: border-box ; color: rgb(36 , 41 , 46) ; font-family: , &amp;#34;consolas&amp;#34; , &amp;#34;liberation mono&amp;#34; , &amp;#34;menlo&amp;#34; , monospace ; background-color: rgb(255 , 255 , 255)&quot;&gt;position&lt;/span&gt;&lt;span style=&quot;color: rgb(36 , 41 , 46) ; font-family: , &amp;#34;consolas&amp;#34; , &amp;#34;liberation mono&amp;#34; , &amp;#34;menlo&amp;#34; , monospace ; background-color: rgb(255 , 255 , 255)&quot;&gt;);&lt;br&gt;&lt;/span&gt;&lt;span class=&quot;pl-smi&quot; style=&quot;box-sizing: border-box ; color: rgb(36 , 41 , 46) ; font-family: , &amp;#34;consolas&amp;#34; , &amp;#34;liberation mono&amp;#34; , &amp;#34;menlo&amp;#34; , monospace ; background-color: rgb(255 , 255 , 255)&quot;&gt;_flag&lt;/span&gt;&lt;span style=&quot;color: rgb(36 , 41 , 46) ; font-family: , &amp;#34;consolas&amp;#34; , &amp;#34;liberation mono&amp;#34; , &amp;#34;menlo&amp;#34; , monospace ; background-color: rgb(255 , 255 , 255)&quot;&gt; &lt;/span&gt;&lt;span class=&quot;pl-k&quot; style=&quot;box-sizing: border-box ; font-family: , &amp;#34;consolas&amp;#34; , &amp;#34;liberation mono&amp;#34; , &amp;#34;menlo&amp;#34; , monospace ; background-color: rgb(255 , 255 , 255)&quot;&gt;|=&lt;/span&gt;&lt;span style=&quot;color: rgb(36 , 41 , 46) ; font-family: , &amp;#34;consolas&amp;#34; , &amp;#34;liberation mono&amp;#34; , &amp;#34;menlo&amp;#34; , monospace ; background-color: rgb(255 , 255 , 255)&quot;&gt; (&lt;/span&gt;&lt;span class=&quot;pl-k&quot; style=&quot;box-sizing: border-box ; font-family: , &amp;#34;consolas&amp;#34; , &amp;#34;liberation mono&amp;#34; , &amp;#34;menlo&amp;#34; , monospace ; background-color: rgb(255 , 255 , 255)&quot;&gt;uint&lt;/span&gt;&lt;span style=&quot;color: rgb(36 , 41 , 46) ; font-family: , &amp;#34;consolas&amp;#34; , &amp;#34;liberation mono&amp;#34; , &amp;#34;menlo&amp;#34; , monospace ; background-color: rgb(255 , 255 , 255)&quot;&gt;) (&lt;/span&gt;&lt;span class=&quot;pl-c1&quot; style=&quot;box-sizing: border-box ; font-family: , &amp;#34;consolas&amp;#34; , &amp;#34;liberation mono&amp;#34; , &amp;#34;menlo&amp;#34; , monospace ; background-color: rgb(255 , 255 , 255)&quot;&gt;1L&lt;/span&gt;&lt;span style=&quot;color: rgb(36 , 41 , 46) ; font-family: , &amp;#34;consolas&amp;#34; , &amp;#34;liberation mono&amp;#34; , &amp;#34;menlo&amp;#34; , monospace ; background-color: rgb(255 , 255 , 255)&quot;&gt; &lt;/span&gt;&lt;span class=&quot;pl-k&quot; style=&quot;box-sizing: border-box ; font-family: , &amp;#34;consolas&amp;#34; , &amp;#34;liberation mono&amp;#34; , &amp;#34;menlo&amp;#34; , monospace ; background-color: rgb(255 , 255 , 255)&quot;&gt;&amp;lt;&amp;lt;&lt;/span&gt;&lt;span style=&quot;color: rgb(36 , 41 , 46) ; font-family: , &amp;#34;consolas&amp;#34; , &amp;#34;liberation mono&amp;#34; , &amp;#34;menlo&amp;#34; , monospace ; background-color: rgb(255 , 255 , 255)&quot;&gt; (&lt;/span&gt;&lt;span class=&quot;pl-k&quot; style=&quot;box-sizing: border-box ; font-family: , &amp;#34;consolas&amp;#34; , &amp;#34;liberation mono&amp;#34; , &amp;#34;menlo&amp;#34; , monospace ; background-color: rgb(255 , 255 , 255)&quot;&gt;int&lt;/span&gt;&lt;span style=&quot;color: rgb(36 , 41 , 46) ; font-family: , &amp;#34;consolas&amp;#34; , &amp;#34;liberation mono&amp;#34; , &amp;#34;menlo&amp;#34; , monospace ; background-color: rgb(255 , 255 , 255)&quot;&gt;) &lt;/span&gt;&lt;span class=&quot;pl-smi&quot; style=&quot;box-sizing: border-box ; color: rgb(36 , 41 , 46) ; font-family: , &amp;#34;consolas&amp;#34; , &amp;#34;liberation mono&amp;#34; , &amp;#34;menlo&amp;#34; , monospace ; background-color: rgb(255 , 255 , 255)&quot;&gt;position&lt;/span&gt;&lt;span style=&quot;color: rgb(36 , 41 , 46) ; font-family: , &amp;#34;consolas&amp;#34; , &amp;#34;liberation mono&amp;#34; , &amp;#34;menlo&amp;#34; , monospace ; background-color: rgb(255 , 255 , 255)&quot;&gt;);&lt;/span&gt;&lt;span style=&quot;color: rgb(36 , 41 , 46) ; font-family: , &amp;#34;consolas&amp;#34; , &amp;#34;liberation mono&amp;#34; , &amp;#34;menlo&amp;#34; , monospace ; background-color: rgb(255 , 255 , 255)&quot;&gt;&lt;br&gt;&lt;/span&gt;" style="ellipse;whiteSpace=wrap;html=1;aspect=fixed;" vertex="1" parent="1">
          <mxGeometry x="240" y="200" width="80" height="80" as="geometry" />
        </mxCell>
        <mxCell id="b_CHY5Jx8EDemwCV-f49-17" value="True" style="edgeStyle=orthogonalEdgeStyle;rounded=0;orthogonalLoop=1;jettySize=auto;html=1;" edge="1" parent="1" source="b_CHY5Jx8EDemwCV-f49-14" target="b_CHY5Jx8EDemwCV-f49-16">
          <mxGeometry relative="1" as="geometry" />
        </mxCell>
        <mxCell id="b_CHY5Jx8EDemwCV-f49-19" value="" style="edgeStyle=orthogonalEdgeStyle;rounded=0;orthogonalLoop=1;jettySize=auto;html=1;" edge="1" parent="1" source="b_CHY5Jx8EDemwCV-f49-14" target="b_CHY5Jx8EDemwCV-f49-18">
          <mxGeometry relative="1" as="geometry" />
        </mxCell>
        <mxCell id="b_CHY5Jx8EDemwCV-f49-14" value="&lt;span class=&quot;pl-k&quot; style=&quot;box-sizing: border-box ; font-family: , &amp;#34;consolas&amp;#34; , &amp;#34;liberation mono&amp;#34; , &amp;#34;menlo&amp;#34; , monospace ; background-color: rgb(255 , 255 , 255)&quot;&gt;if&lt;/span&gt;&lt;span style=&quot;color: rgb(36 , 41 , 46) ; font-family: , &amp;#34;consolas&amp;#34; , &amp;#34;liberation mono&amp;#34; , &amp;#34;menlo&amp;#34; , monospace ; background-color: rgb(255 , 255 , 255)&quot;&gt; (&lt;/span&gt;&lt;span class=&quot;pl-smi&quot; style=&quot;box-sizing: border-box ; color: rgb(36 , 41 , 46) ; font-family: , &amp;#34;consolas&amp;#34; , &amp;#34;liberation mono&amp;#34; , &amp;#34;menlo&amp;#34; , monospace ; background-color: rgb(255 , 255 , 255)&quot;&gt;_flag&lt;/span&gt;&lt;span style=&quot;color: rgb(36 , 41 , 46) ; font-family: , &amp;#34;consolas&amp;#34; , &amp;#34;liberation mono&amp;#34; , &amp;#34;menlo&amp;#34; , monospace ; background-color: rgb(255 , 255 , 255)&quot;&gt; &lt;/span&gt;&lt;span class=&quot;pl-k&quot; style=&quot;box-sizing: border-box ; font-family: , &amp;#34;consolas&amp;#34; , &amp;#34;liberation mono&amp;#34; , &amp;#34;menlo&amp;#34; , monospace ; background-color: rgb(255 , 255 , 255)&quot;&gt;==&lt;/span&gt;&lt;span style=&quot;color: rgb(36 , 41 , 46) ; font-family: , &amp;#34;consolas&amp;#34; , &amp;#34;liberation mono&amp;#34; , &amp;#34;menlo&amp;#34; , monospace ; background-color: rgb(255 , 255 , 255)&quot;&gt; &lt;/span&gt;&lt;span class=&quot;pl-c1&quot; style=&quot;box-sizing: border-box ; font-family: , &amp;#34;consolas&amp;#34; , &amp;#34;liberation mono&amp;#34; , &amp;#34;menlo&amp;#34; , monospace ; background-color: rgb(255 , 255 , 255)&quot;&gt;null&lt;/span&gt;&lt;span style=&quot;color: rgb(36 , 41 , 46) ; font-family: , &amp;#34;consolas&amp;#34; , &amp;#34;liberation mono&amp;#34; , &amp;#34;menlo&amp;#34; , monospace ; background-color: rgb(255 , 255 , 255)&quot;&gt;)&lt;/span&gt;" style="ellipse;whiteSpace=wrap;html=1;aspect=fixed;" vertex="1" parent="1">
          <mxGeometry x="480" y="200" width="80" height="80" as="geometry" />
        </mxCell>
        <mxCell id="b_CHY5Jx8EDemwCV-f49-16" value="&lt;span style=&quot;color: rgb(36 , 41 , 46) ; font-family: , &amp;#34;consolas&amp;#34; , &amp;#34;liberation mono&amp;#34; , &amp;#34;menlo&amp;#34; , monospace ; background-color: rgb(255 , 255 , 255)&quot;&gt; &lt;/span&gt;&lt;span class=&quot;pl-k&quot; style=&quot;box-sizing: border-box ; font-family: , &amp;#34;consolas&amp;#34; , &amp;#34;liberation mono&amp;#34; , &amp;#34;menlo&amp;#34; , monospace ; background-color: rgb(255 , 255 , 255)&quot;&gt;return&lt;/span&gt;&lt;span style=&quot;color: rgb(36 , 41 , 46) ; font-family: , &amp;#34;consolas&amp;#34; , &amp;#34;liberation mono&amp;#34; , &amp;#34;menlo&amp;#34; , monospace ; background-color: rgb(255 , 255 , 255)&quot;&gt;;&lt;/span&gt;" style="ellipse;whiteSpace=wrap;html=1;aspect=fixed;" vertex="1" parent="1">
          <mxGeometry x="590" y="200" width="80" height="80" as="geometry" />
        </mxCell>
        <mxCell id="b_CHY5Jx8EDemwCV-f49-18" value="&lt;span class=&quot;pl-k&quot; style=&quot;box-sizing: border-box ; font-family: , &amp;#34;consolas&amp;#34; , &amp;#34;liberation mono&amp;#34; , &amp;#34;menlo&amp;#34; , monospace ; background-color: rgb(255 , 255 , 255)&quot;&gt;base&lt;/span&gt;&lt;span style=&quot;color: rgb(36 , 41 , 46) ; font-family: , &amp;#34;consolas&amp;#34; , &amp;#34;liberation mono&amp;#34; , &amp;#34;menlo&amp;#34; , monospace ; background-color: rgb(255 , 255 , 255)&quot;&gt;.&lt;/span&gt;&lt;span class=&quot;pl-en&quot; style=&quot;box-sizing: border-box ; font-family: , &amp;#34;consolas&amp;#34; , &amp;#34;liberation mono&amp;#34; , &amp;#34;menlo&amp;#34; , monospace ; background-color: rgb(255 , 255 , 255)&quot;&gt;&lt;span class=&quot;pl-token&quot; style=&quot;box-sizing: border-box&quot;&gt;SetFlag&lt;/span&gt;&lt;/span&gt;&lt;span style=&quot;color: rgb(36 , 41 , 46) ; font-family: , &amp;#34;consolas&amp;#34; , &amp;#34;liberation mono&amp;#34; , &amp;#34;menlo&amp;#34; , monospace ; background-color: rgb(255 , 255 , 255)&quot;&gt;(&lt;/span&gt;&lt;span class=&quot;pl-smi&quot; style=&quot;box-sizing: border-box ; color: rgb(36 , 41 , 46) ; font-family: , &amp;#34;consolas&amp;#34; , &amp;#34;liberation mono&amp;#34; , &amp;#34;menlo&amp;#34; , monospace ; background-color: rgb(255 , 255 , 255)&quot;&gt;position&lt;/span&gt;&lt;span style=&quot;color: rgb(36 , 41 , 46) ; font-family: , &amp;#34;consolas&amp;#34; , &amp;#34;liberation mono&amp;#34; , &amp;#34;menlo&amp;#34; , monospace ; background-color: rgb(255 , 255 , 255)&quot;&gt;);&lt;br&gt;&lt;/span&gt;&lt;span class=&quot;pl-smi&quot; style=&quot;box-sizing: border-box ; color: rgb(36 , 41 , 46) ; font-family: , &amp;#34;consolas&amp;#34; , &amp;#34;liberation mono&amp;#34; , &amp;#34;menlo&amp;#34; , monospace ; background-color: rgb(255 , 255 , 255)&quot;&gt;_flag&lt;/span&gt;&lt;span style=&quot;color: rgb(36 , 41 , 46) ; font-family: , &amp;#34;consolas&amp;#34; , &amp;#34;liberation mono&amp;#34; , &amp;#34;menlo&amp;#34; , monospace ; background-color: rgb(255 , 255 , 255)&quot;&gt; &lt;/span&gt;&lt;span class=&quot;pl-k&quot; style=&quot;box-sizing: border-box ; font-family: , &amp;#34;consolas&amp;#34; , &amp;#34;liberation mono&amp;#34; , &amp;#34;menlo&amp;#34; , monospace ; background-color: rgb(255 , 255 , 255)&quot;&gt;|=&lt;/span&gt;&lt;span style=&quot;color: rgb(36 , 41 , 46) ; font-family: , &amp;#34;consolas&amp;#34; , &amp;#34;liberation mono&amp;#34; , &amp;#34;menlo&amp;#34; , monospace ; background-color: rgb(255 , 255 , 255)&quot;&gt; (&lt;/span&gt;&lt;span class=&quot;pl-k&quot; style=&quot;box-sizing: border-box ; font-family: , &amp;#34;consolas&amp;#34; , &amp;#34;liberation mono&amp;#34; , &amp;#34;menlo&amp;#34; , monospace ; background-color: rgb(255 , 255 , 255)&quot;&gt;ulong&lt;/span&gt;&lt;span style=&quot;color: rgb(36 , 41 , 46) ; font-family: , &amp;#34;consolas&amp;#34; , &amp;#34;liberation mono&amp;#34; , &amp;#34;menlo&amp;#34; , monospace ; background-color: rgb(255 , 255 , 255)&quot;&gt;) (&lt;/span&gt;&lt;span class=&quot;pl-c1&quot; style=&quot;box-sizing: border-box ; font-family: , &amp;#34;consolas&amp;#34; , &amp;#34;liberation mono&amp;#34; , &amp;#34;menlo&amp;#34; , monospace ; background-color: rgb(255 , 255 , 255)&quot;&gt;1L&lt;/span&gt;&lt;span style=&quot;color: rgb(36 , 41 , 46) ; font-family: , &amp;#34;consolas&amp;#34; , &amp;#34;liberation mono&amp;#34; , &amp;#34;menlo&amp;#34; , monospace ; background-color: rgb(255 , 255 , 255)&quot;&gt; &lt;/span&gt;&lt;span class=&quot;pl-k&quot; style=&quot;box-sizing: border-box ; font-family: , &amp;#34;consolas&amp;#34; , &amp;#34;liberation mono&amp;#34; , &amp;#34;menlo&amp;#34; , monospace ; background-color: rgb(255 , 255 , 255)&quot;&gt;&amp;lt;&amp;lt;&lt;/span&gt;&lt;span style=&quot;color: rgb(36 , 41 , 46) ; font-family: , &amp;#34;consolas&amp;#34; , &amp;#34;liberation mono&amp;#34; , &amp;#34;menlo&amp;#34; , monospace ; background-color: rgb(255 , 255 , 255)&quot;&gt; (&lt;/span&gt;&lt;span class=&quot;pl-k&quot; style=&quot;box-sizing: border-box ; font-family: , &amp;#34;consolas&amp;#34; , &amp;#34;liberation mono&amp;#34; , &amp;#34;menlo&amp;#34; , monospace ; background-color: rgb(255 , 255 , 255)&quot;&gt;int&lt;/span&gt;&lt;span style=&quot;color: rgb(36 , 41 , 46) ; font-family: , &amp;#34;consolas&amp;#34; , &amp;#34;liberation mono&amp;#34; , &amp;#34;menlo&amp;#34; , monospace ; background-color: rgb(255 , 255 , 255)&quot;&gt;) &lt;/span&gt;&lt;span class=&quot;pl-smi&quot; style=&quot;box-sizing: border-box ; color: rgb(36 , 41 , 46) ; font-family: , &amp;#34;consolas&amp;#34; , &amp;#34;liberation mono&amp;#34; , &amp;#34;menlo&amp;#34; , monospace ; background-color: rgb(255 , 255 , 255)&quot;&gt;position&lt;/span&gt;&lt;span style=&quot;color: rgb(36 , 41 , 46) ; font-family: , &amp;#34;consolas&amp;#34; , &amp;#34;liberation mono&amp;#34; , &amp;#34;menlo&amp;#34; , monospace ; background-color: rgb(255 , 255 , 255)&quot;&gt;);&lt;/span&gt;&lt;span style=&quot;color: rgb(36 , 41 , 46) ; font-family: , &amp;#34;consolas&amp;#34; , &amp;#34;liberation mono&amp;#34; , &amp;#34;menlo&amp;#34; , monospace ; background-color: rgb(255 , 255 , 255)&quot;&gt;&lt;br&gt;&lt;/span&gt;" style="ellipse;whiteSpace=wrap;html=1;aspect=fixed;" vertex="1" parent="1">
          <mxGeometry x="480" y="300" width="80" height="80" as="geometry" />
        </mxCell>
        <mxCell id="b_CHY5Jx8EDemwCV-f49-23" value="True" style="edgeStyle=orthogonalEdgeStyle;rounded=0;orthogonalLoop=1;jettySize=auto;html=1;" edge="1" parent="1" source="b_CHY5Jx8EDemwCV-f49-20" target="b_CHY5Jx8EDemwCV-f49-22">
          <mxGeometry relative="1" as="geometry" />
        </mxCell>
        <mxCell id="b_CHY5Jx8EDemwCV-f49-25" value="" style="edgeStyle=orthogonalEdgeStyle;rounded=0;orthogonalLoop=1;jettySize=auto;html=1;" edge="1" parent="1" source="b_CHY5Jx8EDemwCV-f49-20" target="b_CHY5Jx8EDemwCV-f49-24">
          <mxGeometry relative="1" as="geometry" />
        </mxCell>
        <mxCell id="b_CHY5Jx8EDemwCV-f49-20" value="&lt;span class=&quot;pl-k&quot; style=&quot;box-sizing: border-box ; font-family: , &amp;#34;consolas&amp;#34; , &amp;#34;liberation mono&amp;#34; , &amp;#34;menlo&amp;#34; , monospace ; background-color: rgb(255 , 255 , 255)&quot;&gt;if&lt;/span&gt;&lt;span style=&quot;color: rgb(36 , 41 , 46) ; font-family: , &amp;#34;consolas&amp;#34; , &amp;#34;liberation mono&amp;#34; , &amp;#34;menlo&amp;#34; , monospace ; background-color: rgb(255 , 255 , 255)&quot;&gt; (&lt;/span&gt;&lt;span class=&quot;pl-smi&quot; style=&quot;box-sizing: border-box ; color: rgb(36 , 41 , 46) ; font-family: , &amp;#34;consolas&amp;#34; , &amp;#34;liberation mono&amp;#34; , &amp;#34;menlo&amp;#34; , monospace ; background-color: rgb(255 , 255 , 255)&quot;&gt;_flag&lt;/span&gt;&lt;span style=&quot;color: rgb(36 , 41 , 46) ; font-family: , &amp;#34;consolas&amp;#34; , &amp;#34;liberation mono&amp;#34; , &amp;#34;menlo&amp;#34; , monospace ; background-color: rgb(255 , 255 , 255)&quot;&gt; &lt;/span&gt;&lt;span class=&quot;pl-k&quot; style=&quot;box-sizing: border-box ; font-family: , &amp;#34;consolas&amp;#34; , &amp;#34;liberation mono&amp;#34; , &amp;#34;menlo&amp;#34; , monospace ; background-color: rgb(255 , 255 , 255)&quot;&gt;==&lt;/span&gt;&lt;span style=&quot;color: rgb(36 , 41 , 46) ; font-family: , &amp;#34;consolas&amp;#34; , &amp;#34;liberation mono&amp;#34; , &amp;#34;menlo&amp;#34; , monospace ; background-color: rgb(255 , 255 , 255)&quot;&gt; &lt;/span&gt;&lt;span class=&quot;pl-c1&quot; style=&quot;box-sizing: border-box ; font-family: , &amp;#34;consolas&amp;#34; , &amp;#34;liberation mono&amp;#34; , &amp;#34;menlo&amp;#34; , monospace ; background-color: rgb(255 , 255 , 255)&quot;&gt;null&lt;/span&gt;&lt;span style=&quot;color: rgb(36 , 41 , 46) ; font-family: , &amp;#34;consolas&amp;#34; , &amp;#34;liberation mono&amp;#34; , &amp;#34;menlo&amp;#34; , monospace ; background-color: rgb(255 , 255 , 255)&quot;&gt;)&lt;/span&gt;" style="ellipse;whiteSpace=wrap;html=1;aspect=fixed;" vertex="1" parent="1">
          <mxGeometry x="359" y="300" width="80" height="80" as="geometry" />
        </mxCell>
        <mxCell id="b_CHY5Jx8EDemwCV-f49-22" value="&lt;span class=&quot;pl-k&quot; style=&quot;box-sizing: border-box ; font-family: , &amp;#34;consolas&amp;#34; , &amp;#34;liberation mono&amp;#34; , &amp;#34;menlo&amp;#34; , monospace ; background-color: rgb(255 , 255 , 255)&quot;&gt;return&lt;/span&gt;&lt;span style=&quot;color: rgb(36 , 41 , 46) ; font-family: , &amp;#34;consolas&amp;#34; , &amp;#34;liberation mono&amp;#34; , &amp;#34;menlo&amp;#34; , monospace ; background-color: rgb(255 , 255 , 255)&quot;&gt;;&lt;/span&gt;" style="ellipse;whiteSpace=wrap;html=1;aspect=fixed;" vertex="1" parent="1">
          <mxGeometry x="240" y="300" width="80" height="80" as="geometry" />
        </mxCell>
        <mxCell id="b_CHY5Jx8EDemwCV-f49-27" value="" style="edgeStyle=orthogonalEdgeStyle;rounded=0;orthogonalLoop=1;jettySize=auto;html=1;" edge="1" parent="1" source="b_CHY5Jx8EDemwCV-f49-24" target="b_CHY5Jx8EDemwCV-f49-26">
          <mxGeometry relative="1" as="geometry" />
        </mxCell>
        <mxCell id="b_CHY5Jx8EDemwCV-f49-24" value="&lt;span class=&quot;pl-k&quot; style=&quot;box-sizing: border-box ; font-family: , &amp;#34;consolas&amp;#34; , &amp;#34;liberation mono&amp;#34; , &amp;#34;menlo&amp;#34; , monospace ; background-color: rgb(255 , 255 , 255)&quot;&gt;base&lt;/span&gt;&lt;span style=&quot;color: rgb(36 , 41 , 46) ; font-family: , &amp;#34;consolas&amp;#34; , &amp;#34;liberation mono&amp;#34; , &amp;#34;menlo&amp;#34; , monospace ; background-color: rgb(255 , 255 , 255)&quot;&gt;.&lt;/span&gt;&lt;span class=&quot;pl-en&quot; style=&quot;box-sizing: border-box ; font-family: , &amp;#34;consolas&amp;#34; , &amp;#34;liberation mono&amp;#34; , &amp;#34;menlo&amp;#34; , monospace ; background-color: rgb(255 , 255 , 255)&quot;&gt;&lt;span class=&quot;pl-token&quot; style=&quot;box-sizing: border-box&quot;&gt;SetFlag&lt;/span&gt;&lt;/span&gt;&lt;span style=&quot;color: rgb(36 , 41 , 46) ; font-family: , &amp;#34;consolas&amp;#34; , &amp;#34;liberation mono&amp;#34; , &amp;#34;menlo&amp;#34; , monospace ; background-color: rgb(255 , 255 , 255)&quot;&gt;(&lt;/span&gt;&lt;span class=&quot;pl-smi&quot; style=&quot;box-sizing: border-box ; color: rgb(36 , 41 , 46) ; font-family: , &amp;#34;consolas&amp;#34; , &amp;#34;liberation mono&amp;#34; , &amp;#34;menlo&amp;#34; , monospace ; background-color: rgb(255 , 255 , 255)&quot;&gt;position&lt;/span&gt;&lt;span style=&quot;color: rgb(36 , 41 , 46) ; font-family: , &amp;#34;consolas&amp;#34; , &amp;#34;liberation mono&amp;#34; , &amp;#34;menlo&amp;#34; , monospace ; background-color: rgb(255 , 255 , 255)&quot;&gt;);&lt;br&gt;&lt;/span&gt;&lt;span class=&quot;pl-smi&quot; style=&quot;box-sizing: border-box ; color: rgb(36 , 41 , 46) ; font-family: , &amp;#34;consolas&amp;#34; , &amp;#34;liberation mono&amp;#34; , &amp;#34;menlo&amp;#34; , monospace ; background-color: rgb(255 , 255 , 255)&quot;&gt;_flag&lt;/span&gt;&lt;span style=&quot;color: rgb(36 , 41 , 46) ; font-family: , &amp;#34;consolas&amp;#34; , &amp;#34;liberation mono&amp;#34; , &amp;#34;menlo&amp;#34; , monospace ; background-color: rgb(255 , 255 , 255)&quot;&gt;[&lt;/span&gt;&lt;span class=&quot;pl-smi&quot; style=&quot;box-sizing: border-box ; color: rgb(36 , 41 , 46) ; font-family: , &amp;#34;consolas&amp;#34; , &amp;#34;liberation mono&amp;#34; , &amp;#34;menlo&amp;#34; , monospace ; background-color: rgb(255 , 255 , 255)&quot;&gt;_flag&lt;/span&gt;&lt;span style=&quot;color: rgb(36 , 41 , 46) ; font-family: , &amp;#34;consolas&amp;#34; , &amp;#34;liberation mono&amp;#34; , &amp;#34;menlo&amp;#34; , monospace ; background-color: rgb(255 , 255 , 255)&quot;&gt;.&lt;/span&gt;&lt;span class=&quot;pl-smi&quot; style=&quot;box-sizing: border-box ; color: rgb(36 , 41 , 46) ; font-family: , &amp;#34;consolas&amp;#34; , &amp;#34;liberation mono&amp;#34; , &amp;#34;menlo&amp;#34; , monospace ; background-color: rgb(255 , 255 , 255)&quot;&gt;Length&lt;/span&gt;&lt;span style=&quot;color: rgb(36 , 41 , 46) ; font-family: , &amp;#34;consolas&amp;#34; , &amp;#34;liberation mono&amp;#34; , &amp;#34;menlo&amp;#34; , monospace ; background-color: rgb(255 , 255 , 255)&quot;&gt; &lt;/span&gt;&lt;span class=&quot;pl-k&quot; style=&quot;box-sizing: border-box ; font-family: , &amp;#34;consolas&amp;#34; , &amp;#34;liberation mono&amp;#34; , &amp;#34;menlo&amp;#34; , monospace ; background-color: rgb(255 , 255 , 255)&quot;&gt;-&lt;/span&gt;&lt;span style=&quot;color: rgb(36 , 41 , 46) ; font-family: , &amp;#34;consolas&amp;#34; , &amp;#34;liberation mono&amp;#34; , &amp;#34;menlo&amp;#34; , monospace ; background-color: rgb(255 , 255 , 255)&quot;&gt; &lt;/span&gt;&lt;span class=&quot;pl-c1&quot; style=&quot;box-sizing: border-box ; font-family: , &amp;#34;consolas&amp;#34; , &amp;#34;liberation mono&amp;#34; , &amp;#34;menlo&amp;#34; , monospace ; background-color: rgb(255 , 255 , 255)&quot;&gt;1&lt;/span&gt;&lt;span style=&quot;color: rgb(36 , 41 , 46) ; font-family: , &amp;#34;consolas&amp;#34; , &amp;#34;liberation mono&amp;#34; , &amp;#34;menlo&amp;#34; , monospace ; background-color: rgb(255 , 255 , 255)&quot;&gt; &lt;/span&gt;&lt;span class=&quot;pl-k&quot; style=&quot;box-sizing: border-box ; font-family: , &amp;#34;consolas&amp;#34; , &amp;#34;liberation mono&amp;#34; , &amp;#34;menlo&amp;#34; , monospace ; background-color: rgb(255 , 255 , 255)&quot;&gt;-&lt;/span&gt;&lt;span style=&quot;color: rgb(36 , 41 , 46) ; font-family: , &amp;#34;consolas&amp;#34; , &amp;#34;liberation mono&amp;#34; , &amp;#34;menlo&amp;#34; , monospace ; background-color: rgb(255 , 255 , 255)&quot;&gt; (&lt;/span&gt;&lt;span class=&quot;pl-k&quot; style=&quot;box-sizing: border-box ; font-family: , &amp;#34;consolas&amp;#34; , &amp;#34;liberation mono&amp;#34; , &amp;#34;menlo&amp;#34; , monospace ; background-color: rgb(255 , 255 , 255)&quot;&gt;int&lt;/span&gt;&lt;span style=&quot;color: rgb(36 , 41 , 46) ; font-family: , &amp;#34;consolas&amp;#34; , &amp;#34;liberation mono&amp;#34; , &amp;#34;menlo&amp;#34; , monospace ; background-color: rgb(255 , 255 , 255)&quot;&gt;) (&lt;/span&gt;&lt;span class=&quot;pl-smi&quot; style=&quot;box-sizing: border-box ; color: rgb(36 , 41 , 46) ; font-family: , &amp;#34;consolas&amp;#34; , &amp;#34;liberation mono&amp;#34; , &amp;#34;menlo&amp;#34; , monospace ; background-color: rgb(255 , 255 , 255)&quot;&gt;position&lt;/span&gt;&lt;span style=&quot;color: rgb(36 , 41 , 46) ; font-family: , &amp;#34;consolas&amp;#34; , &amp;#34;liberation mono&amp;#34; , &amp;#34;menlo&amp;#34; , monospace ; background-color: rgb(255 , 255 , 255)&quot;&gt; &lt;/span&gt;&lt;span class=&quot;pl-k&quot; style=&quot;box-sizing: border-box ; font-family: , &amp;#34;consolas&amp;#34; , &amp;#34;liberation mono&amp;#34; , &amp;#34;menlo&amp;#34; , monospace ; background-color: rgb(255 , 255 , 255)&quot;&gt;/&lt;/span&gt;&lt;span style=&quot;color: rgb(36 , 41 , 46) ; font-family: , &amp;#34;consolas&amp;#34; , &amp;#34;liberation mono&amp;#34; , &amp;#34;menlo&amp;#34; , monospace ; background-color: rgb(255 , 255 , 255)&quot;&gt; &lt;/span&gt;&lt;span class=&quot;pl-c1&quot; style=&quot;box-sizing: border-box ; font-family: , &amp;#34;consolas&amp;#34; , &amp;#34;liberation mono&amp;#34; , &amp;#34;menlo&amp;#34; , monospace ; background-color: rgb(255 , 255 , 255)&quot;&gt;32&lt;/span&gt;&lt;span style=&quot;color: rgb(36 , 41 , 46) ; font-family: , &amp;#34;consolas&amp;#34; , &amp;#34;liberation mono&amp;#34; , &amp;#34;menlo&amp;#34; , monospace ; background-color: rgb(255 , 255 , 255)&quot;&gt;)] &lt;/span&gt;&lt;span class=&quot;pl-k&quot; style=&quot;box-sizing: border-box ; font-family: , &amp;#34;consolas&amp;#34; , &amp;#34;liberation mono&amp;#34; , &amp;#34;menlo&amp;#34; , monospace ; background-color: rgb(255 , 255 , 255)&quot;&gt;|=&lt;/span&gt;&lt;span style=&quot;color: rgb(36 , 41 , 46) ; font-family: , &amp;#34;consolas&amp;#34; , &amp;#34;liberation mono&amp;#34; , &amp;#34;menlo&amp;#34; , monospace ; background-color: rgb(255 , 255 , 255)&quot;&gt; (&lt;/span&gt;&lt;span class=&quot;pl-k&quot; style=&quot;box-sizing: border-box ; font-family: , &amp;#34;consolas&amp;#34; , &amp;#34;liberation mono&amp;#34; , &amp;#34;menlo&amp;#34; , monospace ; background-color: rgb(255 , 255 , 255)&quot;&gt;uint&lt;/span&gt;&lt;span style=&quot;color: rgb(36 , 41 , 46) ; font-family: , &amp;#34;consolas&amp;#34; , &amp;#34;liberation mono&amp;#34; , &amp;#34;menlo&amp;#34; , monospace ; background-color: rgb(255 , 255 , 255)&quot;&gt;) (&lt;/span&gt;&lt;span class=&quot;pl-c1&quot; style=&quot;box-sizing: border-box ; font-family: , &amp;#34;consolas&amp;#34; , &amp;#34;liberation mono&amp;#34; , &amp;#34;menlo&amp;#34; , monospace ; background-color: rgb(255 , 255 , 255)&quot;&gt;1L&lt;/span&gt;&lt;span style=&quot;color: rgb(36 , 41 , 46) ; font-family: , &amp;#34;consolas&amp;#34; , &amp;#34;liberation mono&amp;#34; , &amp;#34;menlo&amp;#34; , monospace ; background-color: rgb(255 , 255 , 255)&quot;&gt; &lt;/span&gt;&lt;span class=&quot;pl-k&quot; style=&quot;box-sizing: border-box ; font-family: , &amp;#34;consolas&amp;#34; , &amp;#34;liberation mono&amp;#34; , &amp;#34;menlo&amp;#34; , monospace ; background-color: rgb(255 , 255 , 255)&quot;&gt;&amp;lt;&amp;lt;&lt;/span&gt;&lt;span style=&quot;color: rgb(36 , 41 , 46) ; font-family: , &amp;#34;consolas&amp;#34; , &amp;#34;liberation mono&amp;#34; , &amp;#34;menlo&amp;#34; , monospace ; background-color: rgb(255 , 255 , 255)&quot;&gt; (&lt;/span&gt;&lt;span class=&quot;pl-k&quot; style=&quot;box-sizing: border-box ; font-family: , &amp;#34;consolas&amp;#34; , &amp;#34;liberation mono&amp;#34; , &amp;#34;menlo&amp;#34; , monospace ; background-color: rgb(255 , 255 , 255)&quot;&gt;int&lt;/span&gt;&lt;span style=&quot;color: rgb(36 , 41 , 46) ; font-family: , &amp;#34;consolas&amp;#34; , &amp;#34;liberation mono&amp;#34; , &amp;#34;menlo&amp;#34; , monospace ; background-color: rgb(255 , 255 , 255)&quot;&gt;) (&lt;/span&gt;&lt;span class=&quot;pl-smi&quot; style=&quot;box-sizing: border-box ; color: rgb(36 , 41 , 46) ; font-family: , &amp;#34;consolas&amp;#34; , &amp;#34;liberation mono&amp;#34; , &amp;#34;menlo&amp;#34; , monospace ; background-color: rgb(255 , 255 , 255)&quot;&gt;position&lt;/span&gt;&lt;span style=&quot;color: rgb(36 , 41 , 46) ; font-family: , &amp;#34;consolas&amp;#34; , &amp;#34;liberation mono&amp;#34; , &amp;#34;menlo&amp;#34; , monospace ; background-color: rgb(255 , 255 , 255)&quot;&gt; &lt;/span&gt;&lt;span class=&quot;pl-k&quot; style=&quot;box-sizing: border-box ; font-family: , &amp;#34;consolas&amp;#34; , &amp;#34;liberation mono&amp;#34; , &amp;#34;menlo&amp;#34; , monospace ; background-color: rgb(255 , 255 , 255)&quot;&gt;%&lt;/span&gt;&lt;span style=&quot;color: rgb(36 , 41 , 46) ; font-family: , &amp;#34;consolas&amp;#34; , &amp;#34;liberation mono&amp;#34; , &amp;#34;menlo&amp;#34; , monospace ; background-color: rgb(255 , 255 , 255)&quot;&gt; &lt;/span&gt;&lt;span class=&quot;pl-c1&quot; style=&quot;box-sizing: border-box ; font-family: , &amp;#34;consolas&amp;#34; , &amp;#34;liberation mono&amp;#34; , &amp;#34;menlo&amp;#34; , monospace ; background-color: rgb(255 , 255 , 255)&quot;&gt;32&lt;/span&gt;&lt;span style=&quot;color: rgb(36 , 41 , 46) ; font-family: , &amp;#34;consolas&amp;#34; , &amp;#34;liberation mono&amp;#34; , &amp;#34;menlo&amp;#34; , monospace ; background-color: rgb(255 , 255 , 255)&quot;&gt;));&lt;/span&gt;&lt;span style=&quot;color: rgb(36 , 41 , 46) ; font-family: , &amp;#34;consolas&amp;#34; , &amp;#34;liberation mono&amp;#34; , &amp;#34;menlo&amp;#34; , monospace ; background-color: rgb(255 , 255 , 255)&quot;&gt;&lt;br&gt;&lt;/span&gt;" style="ellipse;whiteSpace=wrap;html=1;aspect=fixed;" vertex="1" parent="1">
          <mxGeometry x="359" y="410" width="80" height="80" as="geometry" />
        </mxCell>
        <mxCell id="b_CHY5Jx8EDemwCV-f49-26" value="end" style="ellipse;whiteSpace=wrap;html=1;" vertex="1" parent="1">
          <mxGeometry x="353.5" y="510" width="91" height="30" as="geometry" />
        </mxCell>
        <mxCell id="b_CHY5Jx8EDemwCV-f49-28" value="" style="endArrow=classic;html=1;exitX=0.5;exitY=1;exitDx=0;exitDy=0;entryX=1;entryY=0.5;entryDx=0;entryDy=0;" edge="1" parent="1" source="b_CHY5Jx8EDemwCV-f49-18" target="b_CHY5Jx8EDemwCV-f49-26">
          <mxGeometry width="50" height="50" relative="1" as="geometry">
            <mxPoint x="390" y="450" as="sourcePoint" />
            <mxPoint x="440" y="400" as="targetPoint" />
            <Array as="points">
              <mxPoint x="520" y="525" />
            </Array>
          </mxGeometry>
        </mxCell>
        <mxCell id="b_CHY5Jx8EDemwCV-f49-29" value="" style="endArrow=classic;html=1;exitX=0.5;exitY=1;exitDx=0;exitDy=0;entryX=1;entryY=0.5;entryDx=0;entryDy=0;" edge="1" parent="1" source="b_CHY5Jx8EDemwCV-f49-16" target="b_CHY5Jx8EDemwCV-f49-26">
          <mxGeometry width="50" height="50" relative="1" as="geometry">
            <mxPoint x="390" y="450" as="sourcePoint" />
            <mxPoint x="440" y="400" as="targetPoint" />
            <Array as="points">
              <mxPoint x="630" y="525" />
            </Array>
          </mxGeometry>
        </mxCell>
        <mxCell id="b_CHY5Jx8EDemwCV-f49-30" value="" style="endArrow=classic;html=1;exitX=0.5;exitY=1;exitDx=0;exitDy=0;entryX=0;entryY=0.5;entryDx=0;entryDy=0;" edge="1" parent="1" source="b_CHY5Jx8EDemwCV-f49-10" target="b_CHY5Jx8EDemwCV-f49-26">
          <mxGeometry width="50" height="50" relative="1" as="geometry">
            <mxPoint x="390" y="250" as="sourcePoint" />
            <mxPoint x="440" y="200" as="targetPoint" />
            <Array as="points">
              <mxPoint x="170" y="525" />
            </Array>
          </mxGeometry>
        </mxCell>
        <mxCell id="b_CHY5Jx8EDemwCV-f49-31" value="" style="endArrow=classic;html=1;exitX=0;exitY=0.5;exitDx=0;exitDy=0;entryX=0;entryY=0.5;entryDx=0;entryDy=0;" edge="1" parent="1" source="b_CHY5Jx8EDemwCV-f49-12" target="b_CHY5Jx8EDemwCV-f49-26">
          <mxGeometry width="50" height="50" relative="1" as="geometry">
            <mxPoint x="390" y="350" as="sourcePoint" />
            <mxPoint x="440" y="300" as="targetPoint" />
            <Array as="points">
              <mxPoint x="200" y="240" />
              <mxPoint x="200" y="525" />
            </Array>
          </mxGeometry>
        </mxCell>
        <mxCell id="b_CHY5Jx8EDemwCV-f49-32" value="" style="endArrow=classic;html=1;exitX=0.5;exitY=1;exitDx=0;exitDy=0;entryX=0;entryY=0.5;entryDx=0;entryDy=0;" edge="1" parent="1" source="b_CHY5Jx8EDemwCV-f49-22" target="b_CHY5Jx8EDemwCV-f49-26">
          <mxGeometry width="50" height="50" relative="1" as="geometry">
            <mxPoint x="390" y="350" as="sourcePoint" />
            <mxPoint x="440" y="300" as="targetPoint" />
            <Array as="points">
              <mxPoint x="280" y="525" />
            </Array>
          </mxGeometry>
        </mxCell>
        <mxCell id="b_CHY5Jx8EDemwCV-f49-33" value="0" style="text;html=1;strokeColor=none;fillColor=none;align=center;verticalAlign=middle;whiteSpace=wrap;rounded=0;" vertex="1" parent="1">
          <mxGeometry x="313.5" y="10" width="40" height="20" as="geometry" />
        </mxCell>
        <mxCell id="b_CHY5Jx8EDemwCV-f49-34" value="1" style="text;html=1;strokeColor=none;fillColor=none;align=center;verticalAlign=middle;whiteSpace=wrap;rounded=0;" vertex="1" parent="1">
          <mxGeometry x="313.5" y="90" width="40" height="20" as="geometry" />
        </mxCell>
        <mxCell id="b_CHY5Jx8EDemwCV-f49-35" value="2" style="text;html=1;strokeColor=none;fillColor=none;align=center;verticalAlign=middle;whiteSpace=wrap;rounded=0;" vertex="1" parent="1">
          <mxGeometry x="210" y="90" width="40" height="20" as="geometry" />
        </mxCell>
        <mxCell id="b_CHY5Jx8EDemwCV-f49-36" value="3" style="text;html=1;strokeColor=none;fillColor=none;align=center;verticalAlign=middle;whiteSpace=wrap;rounded=0;" vertex="1" parent="1">
          <mxGeometry x="110" y="90" width="40" height="20" as="geometry" />
        </mxCell>
        <mxCell id="b_CHY5Jx8EDemwCV-f49-37" value="4" style="text;html=1;strokeColor=none;fillColor=none;align=center;verticalAlign=middle;whiteSpace=wrap;rounded=0;" vertex="1" parent="1">
          <mxGeometry x="220" y="190" width="40" height="20" as="geometry" />
        </mxCell>
        <mxCell id="b_CHY5Jx8EDemwCV-f49-38" value="5" style="text;html=1;strokeColor=none;fillColor=none;align=center;verticalAlign=middle;whiteSpace=wrap;rounded=0;" vertex="1" parent="1">
          <mxGeometry x="313.5" y="190" width="40" height="20" as="geometry" />
        </mxCell>
        <mxCell id="b_CHY5Jx8EDemwCV-f49-39" value="6" style="text;html=1;strokeColor=none;fillColor=none;align=center;verticalAlign=middle;whiteSpace=wrap;rounded=0;" vertex="1" parent="1">
          <mxGeometry x="444.5" y="190" width="40" height="20" as="geometry" />
        </mxCell>
        <mxCell id="b_CHY5Jx8EDemwCV-f49-40" value="7" style="text;html=1;strokeColor=none;fillColor=none;align=center;verticalAlign=middle;whiteSpace=wrap;rounded=0;" vertex="1" parent="1">
          <mxGeometry x="560" y="190" width="40" height="20" as="geometry" />
        </mxCell>
        <mxCell id="b_CHY5Jx8EDemwCV-f49-41" value="8" style="text;html=1;strokeColor=none;fillColor=none;align=center;verticalAlign=middle;whiteSpace=wrap;rounded=0;" vertex="1" parent="1">
          <mxGeometry x="220" y="300" width="40" height="20" as="geometry" />
        </mxCell>
        <mxCell id="b_CHY5Jx8EDemwCV-f49-42" value="9" style="text;html=1;strokeColor=none;fillColor=none;align=center;verticalAlign=middle;whiteSpace=wrap;rounded=0;" vertex="1" parent="1">
          <mxGeometry x="320" y="300" width="40" height="20" as="geometry" />
        </mxCell>
        <mxCell id="b_CHY5Jx8EDemwCV-f49-43" value="10" style="text;html=1;strokeColor=none;fillColor=none;align=center;verticalAlign=middle;whiteSpace=wrap;rounded=0;" vertex="1" parent="1">
          <mxGeometry x="444.5" y="300" width="40" height="20" as="geometry" />
        </mxCell>
        <mxCell id="b_CHY5Jx8EDemwCV-f49-44" value="11" style="text;html=1;strokeColor=none;fillColor=none;align=center;verticalAlign=middle;whiteSpace=wrap;rounded=0;" vertex="1" parent="1">
          <mxGeometry x="320" y="400" width="40" height="20" as="geometry" />
        </mxCell>
        <mxCell id="b_CHY5Jx8EDemwCV-f49-45" value="12" style="text;html=1;strokeColor=none;fillColor=none;align=center;verticalAlign=middle;whiteSpace=wrap;rounded=0;" vertex="1" parent="1">
          <mxGeometry x="319" y="500" width="40" height="20" as="geometry" />
        </mxCell>
      </root>
    </mxGraphModel>
  </diagram>
</mxfile>
